<svg width="1440" height="325" viewBox="0 0 1440 325" fill="none" xmlns="http://www.w3.org/2000/svg">
<path d="M30.7194 213.097L31.808 214.461L30.6035 215.725C25.2612 221.327 18.1217 225.855 9.85129 228.864C11.2802 228.954 12.7257 229 14.1855 229C24.3056 229 33.7075 226.845 41.6155 223.144L42.5055 222.728L43.379 223.177C50.4742 226.832 59.1358 229 68.518 229H469.319C481.55 229 492.543 225.33 500.431 219.493C508.32 213.656 513 205.752 513 197.2V118.701C513 110.149 508.32 102.245 500.431 96.4079C492.543 90.571 481.55 86.9008 469.319 86.9008H68.518C56.2871 86.9008 45.294 90.571 37.4054 96.4079C29.5164 102.245 24.8367 110.149 24.8367 118.701V197.2C24.8367 202.944 26.9512 208.374 30.7194 213.097Z" fill="#FFE6AD" stroke="#FFF9EB" stroke-width="4"/>
<path d="M700.267 82.4398L701.498 81.1717L700.391 79.7937C696.164 74.5321 693.822 68.5747 693.822 62.3055V39.6945C693.822 29.79 699.677 20.6024 709.595 13.8045C719.504 7.01296 733.304 2.74822 748.646 2.74822H876.951C892.288 2.74822 906.086 7.01287 915.996 13.8045C925.916 20.6026 931.776 29.791 931.785 39.6963V62.3055C931.785 72.21 925.93 81.3976 916.012 88.1955C906.103 94.987 892.303 99.2518 876.961 99.2518H748.655C736.499 99.2518 725.31 96.5638 716.245 92.0647L715.397 91.644L714.535 92.0325C704.433 96.5816 692.309 99.2518 679.233 99.2518C676.854 99.2518 674.508 99.1618 672.2 98.9879C683.565 95.3773 693.281 89.632 700.267 82.4398Z" stroke="#FFC033" stroke-width="4"/>
<path d="M1440 266.5C1440 214.948 1440 242.586 1440 237V224.673C1440 208.008 1440 214.5 1440 194.5H1240.68C1213.36 194.5 1191.22 208.008 1191.22 224.673V294.747C1191.22 311.413 1213.36 324.92 1240.68 324.92H1440C1440 319 1440 321.5 1440 313C1440 305 1440 311 1440 301C1440 296.085 1440 298.5 1440 283C1440 274.5 1440 274.5 1440 266.5Z" fill="#C2D0FF"/>
<path d="M1388.83 142.222L1388.65 142.516L1388.86 142.793C1391.02 145.642 1394.06 147.877 1397.59 149.166C1396.61 149.32 1395.6 149.401 1394.57 149.401C1390.97 149.401 1387.62 148.44 1384.79 146.78L1384.53 146.624L1384.27 146.792C1381.73 148.434 1378.64 149.401 1375.3 149.401H1233.17C1224.46 149.401 1217.47 142.858 1217.47 134.863V99.9385C1217.47 91.9434 1224.46 85.4008 1233.17 85.4008H1375.3C1384.01 85.4008 1391 91.9434 1391 99.9385V134.863C1391 137.547 1390.21 140.062 1388.83 142.222Z" stroke="#ADC1FF"/>
<path d="M628.354 232.421L627.551 233.631L628.453 234.77C634.702 242.65 643.278 248.926 653.27 252.812C650.964 253.075 648.614 253.211 646.229 253.211C635.311 253.211 625.154 250.417 616.593 245.599L615.564 245.019L614.559 245.642C606.873 250.402 597.518 253.211 587.403 253.211H153.459C127.02 253.211 106 234.193 106 211.206V109.006C106 86.0181 127.02 67 153.459 67H587.403C613.842 67 634.862 86.0181 634.862 109.006V211.206C634.862 218.933 632.493 226.182 628.354 232.421Z" fill="white" stroke="#FFC033" stroke-width="4"/>
<path d="M147.703 159V132.553H158.584C160.926 132.553 162.928 132.931 164.591 133.687C166.278 134.442 167.575 135.525 168.482 136.936C169.389 138.346 169.842 140.021 169.842 141.961C169.842 143.9 169.389 145.575 168.482 146.986C167.575 148.396 166.278 149.479 164.591 150.235C162.928 150.99 160.926 151.368 158.584 151.368H150.423L152.614 149.064V159H147.703ZM152.614 149.593L150.423 147.212H158.357C160.523 147.212 162.148 146.759 163.231 145.852C164.339 144.92 164.893 143.623 164.893 141.961C164.893 140.273 164.339 138.976 163.231 138.069C162.148 137.163 160.523 136.709 158.357 136.709H150.423L152.614 134.291V149.593ZM182.878 159.264C180.813 159.264 178.974 158.824 177.362 157.942C175.75 157.035 174.478 155.801 173.546 154.24C172.614 152.678 172.148 150.902 172.148 148.912C172.148 146.897 172.614 145.122 173.546 143.585C174.478 142.024 175.75 140.802 177.362 139.921C178.974 139.039 180.813 138.598 182.878 138.598C184.968 138.598 186.82 139.039 188.432 139.921C190.069 140.802 191.341 142.011 192.248 143.548C193.18 145.084 193.646 146.872 193.646 148.912C193.646 150.902 193.18 152.678 192.248 154.24C191.341 155.801 190.069 157.035 188.432 157.942C186.82 158.824 184.968 159.264 182.878 159.264ZM182.878 155.222C184.037 155.222 185.069 154.97 185.976 154.466C186.883 153.963 187.588 153.232 188.092 152.275C188.621 151.318 188.885 150.197 188.885 148.912C188.885 147.603 188.621 146.482 188.092 145.55C187.588 144.593 186.883 143.862 185.976 143.359C185.069 142.855 184.049 142.603 182.916 142.603C181.757 142.603 180.724 142.855 179.818 143.359C178.936 143.862 178.231 144.593 177.702 145.55C177.173 146.482 176.909 147.603 176.909 148.912C176.909 150.197 177.173 151.318 177.702 152.275C178.231 153.232 178.936 153.963 179.818 154.466C180.724 154.97 181.744 155.222 182.878 155.222ZM204.401 159.34C202.864 159.34 201.34 159.164 199.829 158.811C198.343 158.433 196.996 157.904 195.787 157.224L197.109 153.711C198.091 154.265 199.2 154.693 200.434 154.995C201.668 155.297 202.902 155.449 204.136 155.449C205.194 155.449 206.101 155.348 206.857 155.146C207.612 154.92 208.191 154.592 208.594 154.164C209.023 153.736 209.237 153.245 209.237 152.691C209.237 151.885 208.884 151.28 208.179 150.877C207.499 150.449 206.516 150.235 205.232 150.235H201.34V147.061H204.854C205.66 147.061 206.34 146.973 206.894 146.797C207.474 146.62 207.914 146.356 208.217 146.003C208.519 145.651 208.67 145.235 208.67 144.757C208.67 144.278 208.481 143.862 208.103 143.51C207.751 143.132 207.234 142.855 206.554 142.679C205.874 142.477 205.056 142.376 204.099 142.376C203.091 142.376 202.046 142.502 200.963 142.754C199.905 143.006 198.822 143.371 197.713 143.85L196.505 140.374C197.789 139.795 199.036 139.354 200.245 139.052C201.479 138.724 202.701 138.548 203.91 138.523C205.748 138.447 207.385 138.636 208.821 139.089C210.257 139.543 211.39 140.198 212.221 141.054C213.053 141.91 213.468 142.918 213.468 144.076C213.468 145.034 213.166 145.903 212.561 146.683C211.982 147.439 211.176 148.031 210.143 148.459C209.136 148.887 207.977 149.101 206.668 149.101L206.819 148.081C209.06 148.081 210.824 148.535 212.108 149.441C213.393 150.323 214.035 151.532 214.035 153.068C214.035 154.303 213.619 155.398 212.788 156.355C211.957 157.287 210.811 158.018 209.35 158.547C207.914 159.076 206.265 159.34 204.401 159.34ZM232.462 154.995L231.442 156.129V138.825H236.165V156.129L235.031 154.995H245.005L243.91 156.129V138.825H248.632V159H218.899V138.825H223.621V156.129L222.526 154.995H232.462ZM254.983 159V138.825H259.705V152.124L270.851 138.825H275.158V159H270.435V145.701L259.327 159H254.983ZM292.694 159.264C291.057 159.264 289.558 158.887 288.198 158.131C286.863 157.375 285.792 156.242 284.986 154.731C284.206 153.194 283.815 151.255 283.815 148.912C283.815 146.545 284.193 144.605 284.949 143.094C285.729 141.583 286.787 140.462 288.122 139.732C289.457 138.976 290.981 138.598 292.694 138.598C294.684 138.598 296.434 139.026 297.945 139.883C299.482 140.739 300.691 141.936 301.572 143.472C302.479 145.008 302.932 146.822 302.932 148.912C302.932 151.003 302.479 152.829 301.572 154.391C300.691 155.927 299.482 157.124 297.945 157.98C296.434 158.836 294.684 159.264 292.694 159.264ZM281.51 166.33V138.825H286.006V143.585L285.855 148.95L286.233 154.315V166.33H281.51ZM292.165 155.222C293.298 155.222 294.306 154.97 295.187 154.466C296.094 153.963 296.812 153.232 297.341 152.275C297.87 151.318 298.134 150.197 298.134 148.912C298.134 147.603 297.87 146.482 297.341 145.55C296.812 144.593 296.094 143.862 295.187 143.359C294.306 142.855 293.298 142.603 292.165 142.603C291.031 142.603 290.011 142.855 289.104 143.359C288.198 143.862 287.48 144.593 286.951 145.55C286.422 146.482 286.158 147.603 286.158 148.912C286.158 150.197 286.422 151.318 286.951 152.275C287.48 153.232 288.198 153.963 289.104 154.466C290.011 154.97 291.031 155.222 292.165 155.222ZM307.633 159V138.825H312.355V146.646H318.362V150.915H312.355V159H307.633ZM326.07 159.264C324.055 159.264 322.254 158.824 320.667 157.942C319.105 157.035 317.871 155.801 316.964 154.24C316.058 152.678 315.604 150.902 315.604 148.912C315.604 146.897 316.058 145.109 316.964 143.548C317.871 141.986 319.105 140.777 320.667 139.921C322.254 139.039 324.055 138.598 326.07 138.598C328.11 138.598 329.911 139.039 331.472 139.921C333.059 140.777 334.306 141.986 335.213 143.548C336.12 145.109 336.573 146.897 336.573 148.912C336.573 150.902 336.12 152.691 335.213 154.277C334.306 155.839 333.059 157.061 331.472 157.942C329.911 158.824 328.11 159.264 326.07 159.264ZM326.07 155.26C327.203 155.26 328.198 154.995 329.054 154.466C329.936 153.937 330.629 153.207 331.132 152.275C331.636 151.343 331.888 150.222 331.888 148.912C331.888 147.603 331.636 146.482 331.132 145.55C330.629 144.593 329.936 143.862 329.054 143.359C328.198 142.855 327.216 142.603 326.108 142.603C324.999 142.603 324.004 142.855 323.123 143.359C322.241 143.862 321.549 144.593 321.045 145.55C320.541 146.482 320.289 147.603 320.289 148.912C320.289 150.222 320.541 151.343 321.045 152.275C321.549 153.207 322.241 153.937 323.123 154.466C324.004 154.995 324.987 155.26 326.07 155.26ZM341.208 159V138.825H345.93V152.124L357.076 138.825H361.383V159H356.66V145.701L345.552 159H341.208ZM350.993 136.445C348.978 136.445 347.429 135.979 346.346 135.047C345.263 134.09 344.709 132.704 344.683 130.891H347.819C347.844 131.798 348.122 132.515 348.65 133.044C349.205 133.573 349.973 133.838 350.955 133.838C351.912 133.838 352.668 133.573 353.222 133.044C353.801 132.515 354.104 131.798 354.129 130.891H357.34C357.315 132.704 356.748 134.09 355.64 135.047C354.557 135.979 353.008 136.445 350.993 136.445ZM378.177 159V138.825H383.126L391.249 153.144H389.285L397.823 138.825H402.244L402.281 159H398.012V143.888L398.768 144.379L391.211 156.884H389.171L381.577 144.039L382.484 143.812V159H378.177ZM418.023 159.264C415.782 159.264 413.817 158.824 412.129 157.942C410.467 157.035 409.17 155.801 408.238 154.24C407.331 152.678 406.878 150.902 406.878 148.912C406.878 146.897 407.319 145.122 408.2 143.585C409.107 142.024 410.341 140.802 411.903 139.921C413.49 139.039 415.291 138.598 417.305 138.598C419.27 138.598 421.021 139.026 422.557 139.883C424.093 140.739 425.302 141.948 426.184 143.51C427.066 145.071 427.506 146.91 427.506 149.026C427.506 149.227 427.494 149.454 427.469 149.706C427.469 149.958 427.456 150.197 427.431 150.424H410.618V147.288H424.937L423.086 148.27C423.111 147.112 422.872 146.091 422.368 145.21C421.864 144.328 421.172 143.636 420.29 143.132C419.434 142.628 418.439 142.376 417.305 142.376C416.147 142.376 415.127 142.628 414.245 143.132C413.389 143.636 412.709 144.341 412.205 145.248C411.726 146.129 411.487 147.175 411.487 148.384V149.139C411.487 150.348 411.764 151.419 412.318 152.351C412.873 153.282 413.653 154 414.661 154.504C415.668 155.008 416.827 155.26 418.137 155.26C419.27 155.26 420.29 155.083 421.197 154.731C422.104 154.378 422.91 153.824 423.615 153.068L426.146 155.978C425.24 157.035 424.093 157.854 422.708 158.433C421.348 158.987 419.786 159.264 418.023 159.264ZM456.185 159L450.291 149.328L454.145 146.948L461.814 159H456.185ZM446.475 150.915V146.986H453.238V150.915H446.475ZM454.598 149.479L450.14 148.95L456.26 138.825H461.285L454.598 149.479ZM434.876 159H429.285L436.917 146.948L440.77 149.328L434.876 159ZM447.873 159H443.188V138.825H447.873V159ZM444.586 150.915H437.861V146.986H444.586V150.915ZM436.463 149.479L429.776 138.825H434.801L440.884 148.95L436.463 149.479ZM465.324 159V138.825H470.047V159H465.324ZM467.705 135.5C466.823 135.5 466.093 135.223 465.513 134.669C464.959 134.115 464.682 133.447 464.682 132.667C464.682 131.861 464.959 131.193 465.513 130.664C466.093 130.11 466.823 129.833 467.705 129.833C468.586 129.833 469.304 130.097 469.858 130.626C470.437 131.13 470.727 131.772 470.727 132.553C470.727 133.384 470.45 134.09 469.896 134.669C469.342 135.223 468.611 135.5 467.705 135.5ZM496.052 159.264C493.936 159.264 492.047 158.824 490.385 157.942C488.748 157.035 487.463 155.801 486.531 154.24C485.599 152.678 485.133 150.902 485.133 148.912C485.133 146.897 485.599 145.122 486.531 143.585C487.463 142.024 488.748 140.802 490.385 139.921C492.047 139.039 493.936 138.598 496.052 138.598C498.017 138.598 499.742 139.001 501.228 139.807C502.739 140.588 503.885 141.747 504.666 143.283L501.039 145.399C500.435 144.442 499.692 143.736 498.81 143.283C497.954 142.83 497.022 142.603 496.014 142.603C494.856 142.603 493.811 142.855 492.879 143.359C491.947 143.862 491.216 144.593 490.687 145.55C490.158 146.482 489.894 147.603 489.894 148.912C489.894 150.222 490.158 151.356 490.687 152.313C491.216 153.245 491.947 153.963 492.879 154.466C493.811 154.97 494.856 155.222 496.014 155.222C497.022 155.222 497.954 154.995 498.81 154.542C499.692 154.088 500.435 153.383 501.039 152.426L504.666 154.542C503.885 156.053 502.739 157.224 501.228 158.055C499.742 158.861 498.017 159.264 496.052 159.264ZM508.824 159V138.825H518.685C521.128 138.825 523.043 139.278 524.428 140.185C525.838 141.092 526.544 142.376 526.544 144.039C526.544 145.676 525.889 146.96 524.579 147.892C523.269 148.799 521.531 149.252 519.365 149.252L519.932 148.081C522.375 148.081 524.189 148.535 525.372 149.441C526.581 150.323 527.186 151.62 527.186 153.333C527.186 155.121 526.518 156.519 525.183 157.527C523.849 158.509 521.821 159 519.101 159H508.824ZM513.32 155.562H518.723C520.007 155.562 520.977 155.36 521.632 154.957C522.287 154.529 522.614 153.887 522.614 153.031C522.614 152.124 522.312 151.456 521.708 151.028C521.103 150.6 520.159 150.386 518.874 150.386H513.32V155.562ZM513.32 147.25H518.27C519.479 147.25 520.385 147.036 520.99 146.608C521.619 146.154 521.934 145.525 521.934 144.719C521.934 143.888 521.619 143.27 520.99 142.867C520.385 142.464 519.479 142.263 518.27 142.263H513.32V147.25ZM541.208 159.264C539.143 159.264 537.304 158.824 535.692 157.942C534.08 157.035 532.808 155.801 531.876 154.24C530.944 152.678 530.478 150.902 530.478 148.912C530.478 146.897 530.944 145.122 531.876 143.585C532.808 142.024 534.08 140.802 535.692 139.921C537.304 139.039 539.143 138.598 541.208 138.598C543.299 138.598 545.15 139.039 546.762 139.921C548.399 140.802 549.671 142.011 550.578 143.548C551.51 145.084 551.976 146.872 551.976 148.912C551.976 150.902 551.51 152.678 550.578 154.24C549.671 155.801 548.399 157.035 546.762 157.942C545.15 158.824 543.299 159.264 541.208 159.264ZM541.208 155.222C542.367 155.222 543.399 154.97 544.306 154.466C545.213 153.963 545.918 153.232 546.422 152.275C546.951 151.318 547.215 150.197 547.215 148.912C547.215 147.603 546.951 146.482 546.422 145.55C545.918 144.593 545.213 143.862 544.306 143.359C543.399 142.855 542.379 142.603 541.246 142.603C540.087 142.603 539.054 142.855 538.148 143.359C537.266 143.862 536.561 144.593 536.032 145.55C535.503 146.482 535.239 147.603 535.239 148.912C535.239 150.197 535.503 151.318 536.032 152.275C536.561 153.232 537.266 153.963 538.148 154.466C539.054 154.97 540.075 155.222 541.208 155.222ZM556.641 159V138.825H572.131V142.83H560.268L561.364 141.772V159H556.641ZM583.675 159.264C581.609 159.264 579.771 158.824 578.159 157.942C576.547 157.035 575.275 155.801 574.343 154.24C573.411 152.678 572.945 150.902 572.945 148.912C572.945 146.897 573.411 145.122 574.343 143.585C575.275 142.024 576.547 140.802 578.159 139.921C579.771 139.039 581.609 138.598 583.675 138.598C585.765 138.598 587.617 139.039 589.229 139.921C590.866 140.802 592.138 142.011 593.045 143.548C593.976 145.084 594.442 146.872 594.442 148.912C594.442 150.902 593.976 152.678 593.045 154.24C592.138 155.801 590.866 157.035 589.229 157.942C587.617 158.824 585.765 159.264 583.675 159.264ZM583.675 155.222C584.833 155.222 585.866 154.97 586.773 154.466C587.68 153.963 588.385 153.232 588.889 152.275C589.418 151.318 589.682 150.197 589.682 148.912C589.682 147.603 589.418 146.482 588.889 145.55C588.385 144.593 587.68 143.862 586.773 143.359C585.866 142.855 584.846 142.603 583.713 142.603C582.554 142.603 581.521 142.855 580.615 143.359C579.733 143.862 579.028 144.593 578.499 145.55C577.97 146.482 577.705 147.603 577.705 148.912C577.705 150.197 577.97 151.318 578.499 152.275C579.028 153.232 579.733 153.963 580.615 154.466C581.521 154.97 582.541 155.222 583.675 155.222ZM156.354 197.264C154.239 197.264 152.35 196.824 150.687 195.942C149.05 195.035 147.766 193.801 146.834 192.24C145.902 190.678 145.436 188.902 145.436 186.912C145.436 184.897 145.902 183.122 146.834 181.585C147.766 180.024 149.05 178.802 150.687 177.921C152.35 177.039 154.239 176.598 156.354 176.598C158.319 176.598 160.044 177.001 161.53 177.807C163.042 178.588 164.188 179.747 164.969 181.283L161.342 183.399C160.737 182.442 159.994 181.736 159.112 181.283C158.256 180.83 157.324 180.603 156.317 180.603C155.158 180.603 154.113 180.855 153.181 181.359C152.249 181.862 151.518 182.593 150.99 183.55C150.461 184.482 150.196 185.603 150.196 186.912C150.196 188.222 150.461 189.356 150.99 190.313C151.518 191.245 152.249 191.963 153.181 192.466C154.113 192.97 155.158 193.222 156.317 193.222C157.324 193.222 158.256 192.995 159.112 192.542C159.994 192.088 160.737 191.383 161.342 190.426L164.969 192.542C164.188 194.053 163.042 195.224 161.53 196.055C160.044 196.861 158.319 197.264 156.354 197.264ZM169.126 197V176.825H188.47V197H183.786V179.734L184.881 180.83H172.753L173.849 179.734V197H169.126ZM194.843 197V176.825H199.565V197H194.843ZM197.223 173.5C196.341 173.5 195.611 173.223 195.032 172.669C194.478 172.115 194.2 171.447 194.2 170.667C194.2 169.861 194.478 169.193 195.032 168.664C195.611 168.11 196.341 167.833 197.223 167.833C198.104 167.833 198.822 168.097 199.376 168.626C199.956 169.13 200.245 169.772 200.245 170.553C200.245 171.384 199.968 172.09 199.414 172.669C198.86 173.223 198.13 173.5 197.223 173.5ZM203.001 196.962L203.228 192.995C203.404 193.02 203.568 193.046 203.719 193.071C203.87 193.096 204.009 193.109 204.135 193.109C204.916 193.109 205.52 192.869 205.948 192.391C206.376 191.912 206.691 191.27 206.893 190.464C207.12 189.633 207.271 188.713 207.346 187.706C207.447 186.673 207.523 185.64 207.573 184.608L207.913 176.825H224.234V197H219.512V179.545L220.607 180.83H211.011L212.031 179.507L211.767 184.834C211.691 186.623 211.54 188.285 211.313 189.822C211.112 191.333 210.784 192.655 210.331 193.789C209.903 194.922 209.298 195.804 208.517 196.433C207.762 197.063 206.792 197.378 205.608 197.378C205.23 197.378 204.815 197.34 204.361 197.264C203.933 197.189 203.48 197.088 203.001 196.962ZM245.065 197L237.773 187.328L241.627 184.948L250.619 197H245.065ZM230.595 197V176.825H235.317V197H230.595ZM233.919 188.915V184.986H240.758V188.915H233.919ZM242.08 187.479L237.66 186.95L245.065 176.825H250.127L242.08 187.479ZM254.619 204.594C253.637 204.594 252.655 204.43 251.672 204.103C250.69 203.775 249.871 203.322 249.217 202.743L251.106 199.267C251.584 199.695 252.126 200.035 252.73 200.287C253.335 200.539 253.952 200.665 254.581 200.665C255.438 200.665 256.13 200.451 256.659 200.022C257.188 199.594 257.679 198.876 258.133 197.869L259.304 195.224L259.682 194.658L267.314 176.825H271.847L262.402 198.625C261.772 200.136 261.067 201.332 260.286 202.214C259.531 203.095 258.674 203.712 257.717 204.065C256.785 204.418 255.753 204.594 254.619 204.594ZM258.775 197.718L249.67 176.825H254.581L261.987 194.242L258.775 197.718ZM275.128 197V176.825H284.988C287.432 176.825 289.346 177.278 290.731 178.185C292.142 179.092 292.847 180.376 292.847 182.039C292.847 183.676 292.192 184.96 290.882 185.892C289.573 186.799 287.835 187.252 285.668 187.252L286.235 186.081C288.678 186.081 290.492 186.535 291.676 187.441C292.885 188.323 293.489 189.62 293.489 191.333C293.489 193.121 292.822 194.519 291.487 195.527C290.152 196.509 288.124 197 285.404 197H275.128ZM279.624 193.562H285.026C286.311 193.562 287.28 193.36 287.935 192.957C288.59 192.529 288.918 191.887 288.918 191.031C288.918 190.124 288.615 189.456 288.011 189.028C287.406 188.6 286.462 188.386 285.177 188.386H279.624V193.562ZM279.624 185.25H284.573C285.782 185.25 286.689 185.036 287.293 184.608C287.923 184.154 288.238 183.525 288.238 182.719C288.238 181.888 287.923 181.27 287.293 180.867C286.689 180.464 285.782 180.263 284.573 180.263H279.624V185.25ZM310.76 197V192.92L310.496 192.051V184.91C310.496 183.525 310.08 182.454 309.249 181.699C308.418 180.918 307.159 180.527 305.471 180.527C304.338 180.527 303.217 180.704 302.109 181.056C301.026 181.409 300.106 181.9 299.351 182.53L297.499 179.092C298.582 178.261 299.867 177.643 301.353 177.24C302.864 176.812 304.426 176.598 306.038 176.598C308.96 176.598 311.214 177.303 312.801 178.714C314.413 180.099 315.219 182.253 315.219 185.175V197H310.76ZM304.413 197.264C302.902 197.264 301.58 197.013 300.446 196.509C299.313 195.98 298.431 195.262 297.802 194.355C297.197 193.423 296.895 192.378 296.895 191.219C296.895 190.086 297.159 189.066 297.688 188.159C298.242 187.252 299.136 186.535 300.371 186.006C301.605 185.477 303.242 185.212 305.282 185.212H311.138V188.348H305.622C304.01 188.348 302.927 188.613 302.373 189.142C301.819 189.645 301.542 190.275 301.542 191.031C301.542 191.887 301.882 192.567 302.562 193.071C303.242 193.575 304.187 193.826 305.396 193.826C306.554 193.826 307.587 193.562 308.494 193.033C309.426 192.504 310.093 191.723 310.496 190.691L311.289 193.524C310.836 194.708 310.017 195.627 308.834 196.282C307.675 196.937 306.202 197.264 304.413 197.264ZM321.063 197V176.825H325.785V185.023H335.948V176.825H340.671V197H335.948V189.028H325.785V197H321.063ZM347 197V176.825H351.723V185.023H361.886V176.825H366.609V197H361.886V189.028H351.723V197H347ZM385.746 197V190.124L386.426 190.917H380.381C377.61 190.917 375.431 190.338 373.845 189.179C372.283 187.996 371.502 186.295 371.502 184.079C371.502 181.711 372.333 179.91 373.996 178.676C375.683 177.442 377.925 176.825 380.721 176.825H389.977V197H385.746ZM371.238 197L376.678 189.293H381.514L376.3 197H371.238ZM385.746 188.613V179.545L386.426 180.792H380.872C379.411 180.792 378.278 181.069 377.472 181.623C376.691 182.152 376.3 183.021 376.3 184.23C376.3 186.497 377.774 187.63 380.721 187.63H386.426L385.746 188.613Z" fill="black"/>
<path d="M784.776 255.473L785.705 256.756L784.668 257.954C779.145 264.338 771.679 269.468 763.008 272.786C764.711 272.927 766.438 273 768.186 273C778.274 273 787.652 270.633 795.547 266.561L796.509 266.065L797.451 266.6C804.534 270.62 813.17 273 822.518 273H1223.32C1247.85 273 1267 256.858 1267 237.753V151.247C1267 132.142 1247.85 116 1223.32 116H822.518C797.991 116 778.837 132.142 778.837 151.247V237.753C778.837 244.187 780.988 250.241 784.776 255.473Z" fill="white" stroke="#3364FF" stroke-width="4"/>
<path d="M849.186 191V172.1H865.089V191H863.118V173.288L863.631 173.828H850.644L851.157 173.288V191H849.186ZM878.324 191.135C877.1 191.135 875.993 190.856 875.003 190.298C874.013 189.722 873.221 188.903 872.627 187.841C872.051 186.761 871.763 185.447 871.763 183.899C871.763 182.351 872.051 181.046 872.627 179.984C873.203 178.904 873.986 178.085 874.976 177.527C875.966 176.969 877.082 176.69 878.324 176.69C879.674 176.69 880.88 176.996 881.942 177.608C883.022 178.202 883.868 179.048 884.48 180.146C885.092 181.226 885.398 182.477 885.398 183.899C885.398 185.339 885.092 186.599 884.48 187.679C883.868 188.759 883.022 189.605 881.942 190.217C880.88 190.829 879.674 191.135 878.324 191.135ZM871.007 196.238V176.825H872.843V181.091L872.654 183.926L872.924 186.788V196.238H871.007ZM878.189 189.434C879.197 189.434 880.097 189.209 880.889 188.759C881.681 188.291 882.311 187.643 882.779 186.815C883.247 185.969 883.481 184.997 883.481 183.899C883.481 182.801 883.247 181.838 882.779 181.01C882.311 180.182 881.681 179.534 880.889 179.066C880.097 178.598 879.197 178.364 878.189 178.364C877.181 178.364 876.272 178.598 875.462 179.066C874.67 179.534 874.04 180.182 873.572 181.01C873.122 181.838 872.897 182.801 872.897 183.899C872.897 184.997 873.122 185.969 873.572 186.815C874.04 187.643 874.67 188.291 875.462 188.759C876.272 189.209 877.181 189.434 878.189 189.434ZM895.349 191.135C893.981 191.135 892.748 190.829 891.65 190.217C890.57 189.587 889.715 188.732 889.085 187.652C888.455 186.554 888.14 185.303 888.14 183.899C888.14 182.477 888.455 181.226 889.085 180.146C889.715 179.066 890.57 178.22 891.65 177.608C892.73 176.996 893.963 176.69 895.349 176.69C896.753 176.69 897.995 176.996 899.075 177.608C900.173 178.22 901.028 179.066 901.64 180.146C902.27 181.226 902.585 182.477 902.585 183.899C902.585 185.303 902.27 186.554 901.64 187.652C901.028 188.732 900.173 189.587 899.075 190.217C897.977 190.829 896.735 191.135 895.349 191.135ZM895.349 189.434C896.375 189.434 897.284 189.209 898.076 188.759C898.868 188.291 899.489 187.643 899.939 186.815C900.407 185.969 900.641 184.997 900.641 183.899C900.641 182.783 900.407 181.811 899.939 180.983C899.489 180.155 898.868 179.516 898.076 179.066C897.284 178.598 896.384 178.364 895.376 178.364C894.368 178.364 893.468 178.598 892.676 179.066C891.884 179.516 891.254 180.155 890.786 180.983C890.318 181.811 890.084 182.783 890.084 183.899C890.084 184.997 890.318 185.969 890.786 186.815C891.254 187.643 891.884 188.291 892.676 188.759C893.468 189.209 894.359 189.434 895.349 189.434ZM923.063 189.326L922.631 189.839V176.825H924.548V189.839L924.035 189.326H931.946L931.433 189.839V176.825H933.35V191H913.748V176.825H915.665V189.839L915.179 189.326H923.063ZM933.728 194.105V190.487L934.214 191H931.325V189.326H935.537V194.105H933.728ZM944.629 191.135C943.261 191.135 942.028 190.829 940.93 190.217C939.85 189.587 938.995 188.732 938.365 187.652C937.735 186.554 937.42 185.303 937.42 183.899C937.42 182.477 937.735 181.226 938.365 180.146C938.995 179.066 939.85 178.22 940.93 177.608C942.01 176.996 943.243 176.69 944.629 176.69C946.033 176.69 947.275 176.996 948.355 177.608C949.453 178.22 950.308 179.066 950.92 180.146C951.55 181.226 951.865 182.477 951.865 183.899C951.865 185.303 951.55 186.554 950.92 187.652C950.308 188.732 949.453 189.587 948.355 190.217C947.257 190.829 946.015 191.135 944.629 191.135ZM944.629 189.434C945.655 189.434 946.564 189.209 947.356 188.759C948.148 188.291 948.769 187.643 949.219 186.815C949.687 185.969 949.921 184.997 949.921 183.899C949.921 182.783 949.687 181.811 949.219 180.983C948.769 180.155 948.148 179.516 947.356 179.066C946.564 178.598 945.664 178.364 944.656 178.364C943.648 178.364 942.748 178.598 941.956 179.066C941.164 179.516 940.534 180.155 940.066 180.983C939.598 181.811 939.364 182.783 939.364 183.899C939.364 184.997 939.598 185.969 940.066 186.815C940.534 187.643 941.164 188.291 941.956 188.759C942.748 189.209 943.639 189.434 944.629 189.434ZM968.969 191.135C967.565 191.135 966.305 190.829 965.189 190.217C964.091 189.587 963.227 188.732 962.597 187.652C961.967 186.554 961.652 185.303 961.652 183.899C961.652 182.477 961.967 181.226 962.597 180.146C963.227 179.066 964.091 178.22 965.189 177.608C966.305 176.996 967.565 176.69 968.969 176.69C970.175 176.69 971.264 176.924 972.236 177.392C973.208 177.86 973.973 178.562 974.531 179.498L973.1 180.47C972.614 179.75 972.011 179.219 971.291 178.877C970.571 178.535 969.788 178.364 968.942 178.364C967.934 178.364 967.025 178.598 966.215 179.066C965.405 179.516 964.766 180.155 964.298 180.983C963.83 181.811 963.596 182.783 963.596 183.899C963.596 185.015 963.83 185.987 964.298 186.815C964.766 187.643 965.405 188.291 966.215 188.759C967.025 189.209 967.934 189.434 968.942 189.434C969.788 189.434 970.571 189.263 971.291 188.921C972.011 188.579 972.614 188.057 973.1 187.355L974.531 188.327C973.973 189.245 973.208 189.947 972.236 190.433C971.264 190.901 970.175 191.135 968.969 191.135ZM984.345 181.82C986.127 181.838 987.477 182.234 988.395 183.008C989.331 183.782 989.799 184.898 989.799 186.356C989.799 187.868 989.295 189.029 988.287 189.839C987.297 190.649 985.857 191.045 983.967 191.027L978.243 191V176.825H980.16V181.766L984.345 181.82ZM983.859 189.569C985.173 189.587 986.163 189.326 986.829 188.786C987.513 188.228 987.855 187.418 987.855 186.356C987.855 185.294 987.522 184.52 986.856 184.034C986.19 183.53 985.191 183.269 983.859 183.251L980.16 183.197V189.515L983.859 189.569ZM999.288 191.135C997.92 191.135 996.687 190.829 995.589 190.217C994.509 189.587 993.654 188.732 993.024 187.652C992.394 186.554 992.079 185.303 992.079 183.899C992.079 182.477 992.394 181.226 993.024 180.146C993.654 179.066 994.509 178.22 995.589 177.608C996.669 176.996 997.902 176.69 999.288 176.69C1000.69 176.69 1001.93 176.996 1003.01 177.608C1004.11 178.22 1004.97 179.066 1005.58 180.146C1006.21 181.226 1006.52 182.477 1006.52 183.899C1006.52 185.303 1006.21 186.554 1005.58 187.652C1004.97 188.732 1004.11 189.587 1003.01 190.217C1001.92 190.829 1000.67 191.135 999.288 191.135ZM999.288 189.434C1000.31 189.434 1001.22 189.209 1002.02 188.759C1002.81 188.291 1003.43 187.643 1003.88 186.815C1004.35 185.969 1004.58 184.997 1004.58 183.899C1004.58 182.783 1004.35 181.811 1003.88 180.983C1003.43 180.155 1002.81 179.516 1002.02 179.066C1001.22 178.598 1000.32 178.364 999.315 178.364C998.307 178.364 997.407 178.598 996.615 179.066C995.823 179.516 995.193 180.155 994.725 180.983C994.257 181.811 994.023 182.783 994.023 183.899C994.023 184.997 994.257 185.969 994.725 186.815C995.193 187.643 995.823 188.291 996.615 188.759C997.407 189.209 998.298 189.434 999.288 189.434ZM1010.62 191V176.825H1020.67V178.499H1012.05L1012.54 178.013V191H1010.62ZM1028.61 191.135C1027.24 191.135 1026.01 190.829 1024.91 190.217C1023.83 189.587 1022.97 188.732 1022.34 187.652C1021.71 186.554 1021.4 185.303 1021.4 183.899C1021.4 182.477 1021.71 181.226 1022.34 180.146C1022.97 179.066 1023.83 178.22 1024.91 177.608C1025.99 176.996 1027.22 176.69 1028.61 176.69C1030.01 176.69 1031.25 176.996 1032.33 177.608C1033.43 178.22 1034.29 179.066 1034.9 180.146C1035.53 181.226 1035.84 182.477 1035.84 183.899C1035.84 185.303 1035.53 186.554 1034.9 187.652C1034.29 188.732 1033.43 189.587 1032.33 190.217C1031.24 190.829 1029.99 191.135 1028.61 191.135ZM1028.61 189.434C1029.63 189.434 1030.54 189.209 1031.34 188.759C1032.13 188.291 1032.75 187.643 1033.2 186.815C1033.67 185.969 1033.9 184.997 1033.9 183.899C1033.9 182.783 1033.67 181.811 1033.2 180.983C1032.75 180.155 1032.13 179.516 1031.34 179.066C1030.54 178.598 1029.64 178.364 1028.64 178.364C1027.63 178.364 1026.73 178.598 1025.94 179.066C1025.14 179.516 1024.51 180.155 1024.05 180.983C1023.58 181.811 1023.34 182.783 1023.34 183.899C1023.34 184.997 1023.58 185.969 1024.05 186.815C1024.51 187.643 1025.14 188.291 1025.94 188.759C1026.73 189.209 1027.62 189.434 1028.61 189.434ZM1049.58 190.082V178.499H1042.75L1042.59 181.658C1042.55 182.612 1042.49 183.548 1042.4 184.466C1042.33 185.384 1042.19 186.23 1042 187.004C1041.82 187.76 1041.55 188.381 1041.21 188.867C1040.87 189.335 1040.43 189.605 1039.89 189.677L1037.97 189.326C1038.53 189.344 1038.99 189.146 1039.35 188.732C1039.71 188.3 1039.99 187.715 1040.19 186.977C1040.38 186.239 1040.53 185.402 1040.62 184.466C1040.71 183.512 1040.78 182.54 1040.83 181.55L1041.02 176.825H1051.5V190.082H1049.58ZM1037.38 194.429V189.326H1053.71V194.429H1051.9V191H1039.19V194.429H1037.38ZM1057.45 191V176.825H1059.37V183.089H1068.3V176.825H1070.22V191H1068.3V184.736H1059.37V191H1057.45ZM1075.67 191V176.825H1077.59V191H1075.67ZM1076.64 173.693C1076.25 173.693 1075.91 173.558 1075.64 173.288C1075.37 173.018 1075.24 172.694 1075.24 172.316C1075.24 171.938 1075.37 171.623 1075.64 171.371C1075.91 171.101 1076.25 170.966 1076.64 170.966C1077.04 170.966 1077.37 171.092 1077.64 171.344C1077.91 171.596 1078.05 171.911 1078.05 172.289C1078.05 172.685 1077.91 173.018 1077.64 173.288C1077.39 173.558 1077.06 173.693 1076.64 173.693ZM846.405 224L852.399 216.224L852.372 217.169L846.675 209.825H848.835L853.506 215.9L852.696 215.873L857.367 209.825H859.473L853.722 217.25L853.749 216.224L859.797 224H857.61L852.669 217.52L853.425 217.628L848.565 224H846.405ZM868.27 224.135C866.902 224.135 865.669 223.829 864.571 223.217C863.491 222.587 862.636 221.732 862.006 220.652C861.376 219.554 861.061 218.303 861.061 216.899C861.061 215.477 861.376 214.226 862.006 213.146C862.636 212.066 863.491 211.22 864.571 210.608C865.651 209.996 866.884 209.69 868.27 209.69C869.674 209.69 870.916 209.996 871.996 210.608C873.094 211.22 873.949 212.066 874.561 213.146C875.191 214.226 875.506 215.477 875.506 216.899C875.506 218.303 875.191 219.554 874.561 220.652C873.949 221.732 873.094 222.587 871.996 223.217C870.898 223.829 869.656 224.135 868.27 224.135ZM868.27 222.434C869.296 222.434 870.205 222.209 870.997 221.759C871.789 221.291 872.41 220.643 872.86 219.815C873.328 218.969 873.562 217.997 873.562 216.899C873.562 215.783 873.328 214.811 872.86 213.983C872.41 213.155 871.789 212.516 870.997 212.066C870.205 211.598 869.305 211.364 868.297 211.364C867.289 211.364 866.389 211.598 865.597 212.066C864.805 212.516 864.175 213.155 863.707 213.983C863.239 214.811 863.005 215.783 863.005 216.899C863.005 217.997 863.239 218.969 863.707 219.815C864.175 220.643 864.805 221.291 865.597 221.759C866.389 222.209 867.28 222.434 868.27 222.434ZM888.567 218.006C887.739 218.366 886.902 218.654 886.056 218.87C885.228 219.068 884.4 219.167 883.572 219.167C881.898 219.167 880.575 218.789 879.603 218.033C878.631 217.259 878.145 216.071 878.145 214.469V209.825H880.035V214.361C880.035 215.441 880.386 216.251 881.088 216.791C881.79 217.331 882.735 217.601 883.923 217.601C884.643 217.601 885.399 217.511 886.191 217.331C886.983 217.133 887.784 216.854 888.594 216.494L888.567 218.006ZM888.405 224V209.825H890.322V224H888.405ZM901.841 224.135C900.365 224.135 899.069 223.829 897.953 223.217C896.837 222.587 895.964 221.732 895.334 220.652C894.704 219.554 894.389 218.303 894.389 216.899C894.389 215.495 894.686 214.253 895.28 213.173C895.892 212.093 896.72 211.247 897.764 210.635C898.826 210.005 900.014 209.69 901.328 209.69C902.66 209.69 903.839 209.996 904.865 210.608C905.909 211.202 906.728 212.048 907.322 213.146C907.916 214.226 908.213 215.477 908.213 216.899C908.213 216.989 908.204 217.088 908.186 217.196C908.186 217.286 908.186 217.385 908.186 217.493H895.847V216.062H907.16L906.404 216.629C906.404 215.603 906.179 214.694 905.729 213.902C905.297 213.092 904.703 212.462 903.947 212.012C903.191 211.562 902.318 211.337 901.328 211.337C900.356 211.337 899.483 211.562 898.709 212.012C897.935 212.462 897.332 213.092 896.9 213.902C896.468 214.712 896.252 215.639 896.252 216.683V216.98C896.252 218.06 896.486 219.014 896.954 219.842C897.44 220.652 898.106 221.291 898.952 221.759C899.816 222.209 900.797 222.434 901.895 222.434C902.759 222.434 903.56 222.281 904.298 221.975C905.054 221.669 905.702 221.201 906.242 220.571L907.322 221.813C906.692 222.569 905.9 223.145 904.946 223.541C904.01 223.937 902.975 224.135 901.841 224.135ZM921.771 222.326L921.339 222.839V209.825H923.256V222.839L922.743 222.326H930.654L930.141 222.839V209.825H932.058V224H912.456V209.825H914.373V222.839L913.887 222.326H921.771ZM944.572 224V209.825H957.316V224H955.399V210.986L955.885 211.499H946.003L946.489 210.986V224H944.572ZM968.597 224.135C967.229 224.135 965.996 223.829 964.898 223.217C963.818 222.587 962.963 221.732 962.333 220.652C961.703 219.554 961.388 218.303 961.388 216.899C961.388 215.477 961.703 214.226 962.333 213.146C962.963 212.066 963.818 211.22 964.898 210.608C965.978 209.996 967.211 209.69 968.597 209.69C970.001 209.69 971.243 209.996 972.323 210.608C973.421 211.22 974.276 212.066 974.888 213.146C975.518 214.226 975.833 215.477 975.833 216.899C975.833 218.303 975.518 219.554 974.888 220.652C974.276 221.732 973.421 222.587 972.323 223.217C971.225 223.829 969.983 224.135 968.597 224.135ZM968.597 222.434C969.623 222.434 970.532 222.209 971.324 221.759C972.116 221.291 972.737 220.643 973.187 219.815C973.655 218.969 973.889 217.997 973.889 216.899C973.889 215.783 973.655 214.811 973.187 213.983C972.737 213.155 972.116 212.516 971.324 212.066C970.532 211.598 969.632 211.364 968.624 211.364C967.616 211.364 966.716 211.598 965.924 212.066C965.132 212.516 964.502 213.155 964.034 213.983C963.566 214.811 963.332 215.783 963.332 216.899C963.332 217.997 963.566 218.969 964.034 219.815C964.502 220.643 965.132 221.291 965.924 221.759C966.716 222.209 967.607 222.434 968.597 222.434ZM979.93 224V209.825H989.974V211.499H981.361L981.847 211.013V224H979.93ZM997.917 224.135C996.549 224.135 995.316 223.829 994.218 223.217C993.138 222.587 992.283 221.732 991.653 220.652C991.023 219.554 990.708 218.303 990.708 216.899C990.708 215.477 991.023 214.226 991.653 213.146C992.283 212.066 993.138 211.22 994.218 210.608C995.298 209.996 996.531 209.69 997.917 209.69C999.321 209.69 1000.56 209.996 1001.64 210.608C1002.74 211.22 1003.6 212.066 1004.21 213.146C1004.84 214.226 1005.15 215.477 1005.15 216.899C1005.15 218.303 1004.84 219.554 1004.21 220.652C1003.6 221.732 1002.74 222.587 1001.64 223.217C1000.55 223.829 999.303 224.135 997.917 224.135ZM997.917 222.434C998.943 222.434 999.852 222.209 1000.64 221.759C1001.44 221.291 1002.06 220.643 1002.51 219.815C1002.98 218.969 1003.21 217.997 1003.21 216.899C1003.21 215.783 1002.98 214.811 1002.51 213.983C1002.06 213.155 1001.44 212.516 1000.64 212.066C999.852 211.598 998.952 211.364 997.944 211.364C996.936 211.364 996.036 211.598 995.244 212.066C994.452 212.516 993.822 213.155 993.354 213.983C992.886 214.811 992.652 215.783 992.652 216.899C992.652 217.997 992.886 218.969 993.354 219.815C993.822 220.643 994.452 221.291 995.244 221.759C996.036 222.209 996.927 222.434 997.917 222.434ZM1009.25 224V209.825H1015.51C1017.12 209.825 1018.38 210.131 1019.29 210.743C1020.23 211.355 1020.7 212.255 1020.7 213.443C1020.7 214.595 1020.26 215.486 1019.38 216.116C1018.49 216.728 1017.33 217.034 1015.89 217.034L1016.27 216.467C1017.96 216.467 1019.2 216.782 1020 217.412C1020.79 218.042 1021.18 218.951 1021.18 220.139C1021.18 221.363 1020.73 222.317 1019.83 223.001C1018.95 223.667 1017.58 224 1015.7 224H1009.25ZM1011.11 222.488H1015.62C1016.83 222.488 1017.74 222.299 1018.35 221.921C1018.98 221.525 1019.29 220.895 1019.29 220.031C1019.29 219.167 1019.02 218.537 1018.46 218.141C1017.9 217.745 1017.02 217.547 1015.81 217.547H1011.11V222.488ZM1011.11 216.116H1015.38C1016.48 216.116 1017.31 215.909 1017.89 215.495C1018.48 215.081 1018.78 214.478 1018.78 213.686C1018.78 212.894 1018.48 212.3 1017.89 211.904C1017.31 211.508 1016.48 211.31 1015.38 211.31H1011.11V216.116ZM1031.51 224.135C1030.14 224.135 1028.91 223.829 1027.81 223.217C1026.73 222.587 1025.88 221.732 1025.25 220.652C1024.62 219.554 1024.3 218.303 1024.3 216.899C1024.3 215.477 1024.62 214.226 1025.25 213.146C1025.88 212.066 1026.73 211.22 1027.81 210.608C1028.89 209.996 1030.12 209.69 1031.51 209.69C1032.91 209.69 1034.16 209.996 1035.24 210.608C1036.33 211.22 1037.19 212.066 1037.8 213.146C1038.43 214.226 1038.75 215.477 1038.75 216.899C1038.75 218.303 1038.43 219.554 1037.8 220.652C1037.19 221.732 1036.33 222.587 1035.24 223.217C1034.14 223.829 1032.9 224.135 1031.51 224.135ZM1031.51 222.434C1032.54 222.434 1033.44 222.209 1034.24 221.759C1035.03 221.291 1035.65 220.643 1036.1 219.815C1036.57 218.969 1036.8 217.997 1036.8 216.899C1036.8 215.783 1036.57 214.811 1036.1 213.983C1035.65 213.155 1035.03 212.516 1034.24 212.066C1033.44 211.598 1032.54 211.364 1031.54 211.364C1030.53 211.364 1029.63 211.598 1028.84 212.066C1028.04 212.516 1027.41 213.155 1026.95 213.983C1026.48 214.811 1026.24 215.783 1026.24 216.899C1026.24 217.997 1026.48 218.969 1026.95 219.815C1027.41 220.643 1028.04 221.291 1028.84 221.759C1029.63 222.209 1030.52 222.434 1031.51 222.434ZM1050.16 224.135C1048.94 224.135 1047.83 223.856 1046.84 223.298C1045.85 222.722 1045.06 221.903 1044.46 220.841C1043.89 219.761 1043.6 218.447 1043.6 216.899C1043.6 215.351 1043.89 214.046 1044.46 212.984C1045.04 211.904 1045.82 211.085 1046.81 210.527C1047.8 209.969 1048.92 209.69 1050.16 209.69C1051.51 209.69 1052.72 209.996 1053.78 210.608C1054.86 211.202 1055.7 212.048 1056.32 213.146C1056.93 214.226 1057.23 215.477 1057.23 216.899C1057.23 218.339 1056.93 219.599 1056.32 220.679C1055.7 221.759 1054.86 222.605 1053.78 223.217C1052.72 223.829 1051.51 224.135 1050.16 224.135ZM1042.84 229.238V209.825H1044.68V214.091L1044.49 216.926L1044.76 219.788V229.238H1042.84ZM1050.02 222.434C1051.03 222.434 1051.93 222.209 1052.72 221.759C1053.52 221.291 1054.15 220.643 1054.61 219.815C1055.08 218.969 1055.32 217.997 1055.32 216.899C1055.32 215.801 1055.08 214.838 1054.61 214.01C1054.15 213.182 1053.52 212.534 1052.72 212.066C1051.93 211.598 1051.03 211.364 1050.02 211.364C1049.02 211.364 1048.11 211.598 1047.3 212.066C1046.51 212.534 1045.88 213.182 1045.41 214.01C1044.96 214.838 1044.73 215.801 1044.73 216.899C1044.73 217.997 1044.96 218.969 1045.41 219.815C1045.88 220.643 1046.51 221.291 1047.3 221.759C1048.11 222.209 1049.02 222.434 1050.02 222.434ZM1061.35 224V209.825H1063.27V221.084L1072.75 209.825H1074.45V224H1072.53V212.714L1063.08 224H1061.35ZM1082.64 224V210.986L1083.13 211.499H1077.27V209.825H1089.93V211.499H1084.07L1084.56 210.986V224H1082.64ZM1092.7 224V209.825H1094.62V221.084L1104.1 209.825H1105.8V224H1103.88V212.714L1094.43 224H1092.7ZM1115.17 218.33C1115.17 217.574 1115.29 216.926 1115.52 216.386C1115.78 215.846 1116.08 215.369 1116.44 214.955C1116.82 214.541 1117.22 214.154 1117.63 213.794C1118.06 213.434 1118.47 213.074 1118.85 212.714C1119.22 212.336 1119.53 211.931 1119.76 211.499C1120 211.049 1120.11 210.527 1120.11 209.933C1120.11 208.961 1119.74 208.169 1118.98 207.557C1118.22 206.945 1117.15 206.639 1115.77 206.639C1114.62 206.639 1113.62 206.828 1112.77 207.206C1111.92 207.566 1111.2 208.106 1110.61 208.826L1109.18 207.746C1109.9 206.846 1110.83 206.153 1111.96 205.667C1113.09 205.181 1114.41 204.938 1115.9 204.938C1117.16 204.938 1118.25 205.127 1119.17 205.505C1120.11 205.883 1120.83 206.423 1121.33 207.125C1121.85 207.827 1122.11 208.664 1122.11 209.636C1122.11 210.41 1121.99 211.076 1121.73 211.634C1121.5 212.174 1121.19 212.66 1120.82 213.092C1120.46 213.506 1120.06 213.902 1119.63 214.28C1119.21 214.64 1118.82 215.009 1118.44 215.387C1118.06 215.765 1117.76 216.188 1117.52 216.656C1117.29 217.124 1117.17 217.682 1117.17 218.33H1115.17ZM1116.17 224.135C1115.79 224.135 1115.46 224 1115.17 223.73C1114.9 223.442 1114.77 223.109 1114.77 222.731C1114.77 222.335 1114.9 222.011 1115.17 221.759C1115.46 221.489 1115.79 221.354 1116.17 221.354C1116.59 221.354 1116.93 221.489 1117.2 221.759C1117.47 222.011 1117.6 222.335 1117.6 222.731C1117.6 223.109 1117.47 223.442 1117.2 223.73C1116.93 224 1116.59 224.135 1116.17 224.135Z" fill="black"/>
</svg>
