<svg width="1440" height="668" viewBox="0 0 1440 738" fill="none" xmlns="http://www.w3.org/2000/svg">
<path d="M-161.156 734.463V69.1558C-160.995 69.1237 -160.828 69.0903 -160.654 69.0556C-158.479 68.6216 -155.262 67.9838 -151.099 67.1696C-142.774 65.5413 -130.665 63.2073 -115.537 60.3861C-85.2822 54.7435 -42.9587 47.153 5.31062 39.3616C101.89 23.7723 222.121 7.40446 317.108 4.19397C467.112 -0.87602 577.776 22.6553 688.762 47.8576C693.678 48.9738 698.595 50.0934 703.516 51.214C809.726 75.3995 917.874 100.026 1062.16 101.274C1167.7 102.186 1303.44 94.3053 1412.72 86.2051C1467.38 82.154 1515.45 78.0461 1549.85 74.9508C1567.05 73.4031 1580.84 72.1086 1590.33 71.2009C1595.03 70.751 1598.67 70.3961 1601.16 70.1525V734.463H-161.156Z" fill="#FFC033" stroke="#FFC033" stroke-width="7"/>
</svg>
